# xmcd
#
# Track frame offsets: 
#        150
#        22325
#        44028
#        65246
#        81501
#        98063
#        116188
#        140408
#        162235
#        178419
#        194734
#        218411
#        235445
#        258798
#        277122
#
# Disc length: 3941 seconds
#
# Revision: 0
# Processed by: cddbd v1.5.2PL0 Copyright (c) Steve Scherf et al.
# Submitted via: ExactAudioCopy v1.2
#
DISCID=f40f630f
DTITLE=张惠妹 - 15周年世纪精选 [DISC 2]
DYEAR=2011
DGENRE=Pop
TTITLE0=我可以抱你吗
TTITLE1=一想到你呀
TTITLE2=剪爱
TTITLE3=我要飞
TTITLE4=排山倒海
TTITLE5=给我感觉
TTITLE6=站在高岗上
TTITLE7=记得
TTITLE8=假惺惺
TTITLE9=感应
TTITLE10=旅程
TTITLE11=狠角色
TTITLE12=女人说
TTITLE13=勇敢
TTITLE14=娜鲁湾情歌
EXTD=
EXTT0=
EXTT1=
EXTT2=
EXTT3=
EXTT4=
EXTT5=
EXTT6=
EXTT7=
EXTT8=
EXTT9=
EXTT10=
EXTT11=
EXTT12=
EXTT13=
EXTT14=
PLAYORDER=
